<svg width="104" height="42" viewBox="0 0 104 42" fill="none" xmlns="http://www.w3.org/2000/svg">
<g clip-path="url(#clip0_104_1124)">
<path d="M93.491 0.654375C93.2807 0.779439 93.2409 0.96135 93.2863 1.18874C93.6502 3.24092 94.0083 5.29311 94.3664 7.33961C94.4744 7.95925 94.5881 8.58457 94.6961 9.2042C94.7473 9.47707 94.7359 9.48844 94.446 9.49981L88.3463 9.65329C88.2497 9.65329 88.153 9.65329 88.0564 9.67035C87.6812 9.72151 87.5675 9.98869 87.7892 10.29C88.045 10.6368 88.3122 10.9721 88.5794 11.3132C91.6037 15.23 94.6336 19.1411 97.6636 23.0579C97.7943 23.2284 97.9194 23.4274 98.1866 23.3194C98.3855 23.2398 98.4253 23.0806 98.3685 22.7452C97.999 20.6305 97.6238 18.5101 97.2543 16.3897C97.1576 15.8383 97.061 15.2925 96.9644 14.7468C96.9189 14.508 96.9416 14.4796 97.1917 14.4739L103.337 14.3205H103.559C103.723 14.3148 103.877 14.292 103.957 14.1215C104.042 13.9453 103.957 13.8088 103.86 13.6724C103.65 13.4052 103.439 13.1267 103.235 12.8652C100.159 8.89154 97.0894 4.91792 94.014 0.944296C93.9287 0.830601 93.8434 0.716907 93.7184 0.643005H93.4967L93.491 0.654375Z" fill="#601DFF"/>
<path d="M103.638 26.4971C103.638 26.7131 103.564 26.9519 103.428 27.2077L96.0662 39.9301C95.8501 40.3281 95.5147 40.6578 95.0656 40.9363C94.6279 41.2092 94.23 41.3456 93.8548 41.3456H86.783C86.2373 41.3456 85.9587 41.1126 85.9587 40.6407C85.9587 40.4247 86.0269 40.1859 86.1634 39.9301L92.7065 28.6175C92.8429 28.3674 92.9111 28.1286 92.9111 27.9126C92.9111 27.4408 92.6496 27.2077 92.1153 27.2077C91.723 27.2077 91.3137 27.3442 90.8817 27.617C90.4497 27.8956 90.1143 28.2253 89.8755 28.6175L89.2218 29.7488L83.3381 39.9301C83.122 40.3281 82.7866 40.6578 82.3376 40.9363C81.9055 41.2092 81.5019 41.3456 81.1267 41.3456H74.0549C73.5092 41.3456 73.2306 41.1126 73.2306 40.6407C73.2306 40.4247 73.2988 40.1859 73.441 39.9301L87.1355 16.2476C87.2492 16.0486 87.3685 15.8894 87.4822 15.7701C87.4993 15.753 87.5107 15.7416 87.522 15.7303C87.6983 15.5654 87.8745 15.4801 88.0507 15.4801C88.1189 15.4801 88.1871 15.4915 88.244 15.5256C88.4088 15.7416 88.5794 15.9576 88.7442 16.1737C90.1427 17.9871 91.5468 19.8005 92.9452 21.6083C93.2636 22.0176 93.2977 22.5804 93.0419 23.0294L92.4279 24.1039C92.4279 24.1039 92.4223 24.1323 92.4166 24.1437C92.3711 24.2858 92.3086 24.4222 92.2347 24.553C92.1153 24.7519 92.0584 24.9395 92.0584 25.1157C92.0584 25.1385 92.0584 25.1612 92.0641 25.184C92.0925 25.5876 92.3881 25.7922 92.9396 25.7922H102.842C103.371 25.7922 103.638 26.0253 103.638 26.4971Z" fill="white"/>
<path d="M75.4079 31.4485H68.3361C67.7847 31.4485 67.5118 31.2155 67.5118 30.7436C67.5118 30.5276 67.58 30.2945 67.7164 30.0387L68.5407 28.6232C68.6772 28.3674 68.7454 28.1343 68.7454 27.9183C68.7454 27.4465 68.4782 27.2134 67.9495 27.2134C67.5573 27.2134 67.1423 27.3499 66.7102 27.6284C66.2782 27.907 65.9428 28.2367 65.7097 28.6289L64.0896 31.4599C63.9304 31.7157 63.8508 31.9488 63.8508 32.1648C63.8508 32.6366 64.1237 32.8697 64.6751 32.8697H74.5722C75.1236 32.8697 75.3965 33.1028 75.3965 33.5746C75.3965 33.7906 75.3169 34.0237 75.1634 34.2795L71.8947 39.9358C71.6787 40.3281 71.3433 40.6635 70.8942 40.9363C70.4622 41.2092 70.0585 41.3513 69.689 41.3513H49.8891C49.3377 41.3513 49.0649 41.1183 49.0649 40.6464C49.0649 40.4304 49.1331 40.1973 49.2695 39.9415L50.9181 37.1105C51.1341 36.7183 51.4581 36.3829 51.8902 36.11C52.3393 35.8371 52.7656 35.695 53.1579 35.695H60.2297C60.7583 35.695 61.0255 35.9281 61.0255 36.3999C61.0255 36.616 60.9573 36.849 60.8209 37.1048L59.9966 38.5203C59.8602 38.7761 59.7919 39.0092 59.7919 39.2252C59.7919 39.6971 60.0591 39.9301 60.5878 39.9301C60.98 39.9301 61.395 39.7937 61.8271 39.5152C62.2762 39.2423 62.6116 38.9069 62.8276 38.5146L64.4761 35.6837C64.6126 35.4278 64.6808 35.1948 64.6808 34.9788C64.6808 34.5069 64.4079 34.2738 63.8565 34.2738H53.9594C53.4307 34.2738 53.1635 34.0408 53.1635 33.5689C53.1635 33.3529 53.2318 33.1198 53.3682 32.864L56.6369 27.2077C56.8529 26.8155 57.177 26.4801 57.609 26.2072C58.0581 25.9344 58.4844 25.7922 58.8767 25.7922H78.6766C79.2053 25.7922 79.4725 26.0253 79.4725 26.4971C79.4725 26.7132 79.4042 26.9462 79.2678 27.202L77.6192 30.033C77.4032 30.4253 77.0678 30.7607 76.6187 31.0336C76.1867 31.3064 75.7831 31.4485 75.4136 31.4485H75.4079Z" fill="white"/>
<path d="M47.3481 25.7922H54.4199C54.9485 25.7922 55.2157 26.0253 55.2157 26.4971C55.2157 26.7131 55.1475 26.9462 55.0111 27.202L47.6437 39.9301C47.4277 40.3224 47.0923 40.6578 46.6432 40.9306C46.2111 41.2035 45.8075 41.3456 45.438 41.3456H25.6381C25.0867 41.3456 24.8138 41.1126 24.8138 40.6407C24.8138 40.4247 24.882 40.1916 25.0185 39.9358L32.3859 27.2077C32.6019 26.8155 32.9259 26.4801 33.358 26.2072C33.8071 25.9343 34.2334 25.7922 34.6257 25.7922H41.6975C42.2261 25.7922 42.4933 26.0253 42.4933 26.4971C42.4933 26.7131 42.4251 26.9462 42.2887 27.202L35.7512 38.5146C35.6148 38.7704 35.5466 39.0035 35.5466 39.2195C35.5466 39.6914 35.8138 39.9244 36.3424 39.9244C36.7347 39.9244 37.1497 39.788 37.5817 39.5095C38.0308 39.2366 38.3662 38.9012 38.5822 38.5089L45.1253 27.1963C45.3414 26.8041 45.6654 26.4687 46.0974 26.1958C46.5465 25.923 46.9729 25.7809 47.3651 25.7809L47.3481 25.7922Z" fill="white"/>
<path d="M9.78341 25.7922H29.5833C30.1347 25.7922 30.4076 26.0253 30.4076 26.4971C30.4076 26.7132 30.328 26.9462 30.1745 27.202L28.5544 30.033C28.3384 30.4253 28.003 30.7607 27.5539 31.0336C27.1218 31.3064 26.7068 31.4485 26.3146 31.4485H19.2428C18.7141 31.4485 18.4469 31.2155 18.4469 30.7436C18.4469 30.5276 18.5151 30.2945 18.6516 30.0387L19.4759 28.6232C19.6123 28.3674 19.6805 28.1343 19.6805 27.9183C19.6805 27.4465 19.4076 27.2134 18.8562 27.2134C18.481 27.2134 18.0717 27.3499 17.617 27.6284C17.1849 27.9013 16.8609 28.2367 16.6449 28.6289L10.1074 39.9415C9.89142 40.3338 9.55602 40.6692 9.10693 40.942C8.67489 41.2149 8.2599 41.357 7.86766 41.357H0.795861C0.267182 41.357 0 41.1239 0 40.6521C0 40.4361 0.0682167 40.203 0.20465 39.9472L7.53794 27.2191C7.77102 26.8269 8.10642 26.4915 8.53846 26.2186C8.9705 25.9457 9.38548 25.8036 9.77773 25.8036L9.78341 25.7922Z" fill="white"/>
<path d="M74.8849 17.0719L72.9293 17.5494V1.35359H79.9215V22.3302H70.8885L60.4798 6.16287L62.4353 5.68535V22.3302H55.4431V1.35359H64.7604L74.8849 17.0719Z" fill="white"/>
<path d="M37.036 10.3298H44.085C44.7956 10.3298 45.3414 10.1592 45.7336 9.82383C46.1259 9.48843 46.3191 9.00523 46.3191 8.36854C46.3191 7.73185 46.1259 7.24865 45.7336 6.91325C45.3414 6.57785 44.7899 6.40731 44.085 6.40731H36.0298L39.2758 3.16133V22.3245H32.0562V1.35359H45.2049C46.8819 1.35359 48.3486 1.6492 49.5992 2.24609C50.8669 2.82594 51.8447 3.63317 52.5382 4.67916C53.2488 5.72514 53.6013 6.95305 53.6013 8.37423C53.6013 9.79541 53.2488 10.9778 52.5382 12.0409C51.8504 13.0869 50.8669 13.8941 49.5992 14.4739C48.3486 15.0538 46.8876 15.3437 45.2049 15.3437H37.036V10.3355V10.3298ZM39.4975 12.5127H47.4674L54.4312 22.3302H46.177L39.4918 12.5127H39.4975Z" fill="white"/>
<path d="M14.2232 13.4052H20.6299L29.6345 24.0072H23.0061L14.2232 13.4052ZM17.833 22.8362C15.2805 22.8362 13.0408 22.3814 11.1193 21.4662C9.21494 20.5509 7.73691 19.2775 6.67386 17.6346C5.61082 15.9747 5.08214 14.0476 5.08214 11.8419C5.08214 9.63624 5.61082 7.72049 6.67386 6.0776C7.73691 4.41766 9.22062 3.13292 11.1193 2.21767C13.0408 1.30243 15.2805 0.847656 17.833 0.847656C20.3854 0.847656 22.6138 1.30243 24.5182 2.21767C26.4397 3.13292 27.9291 4.41766 28.9921 6.0776C30.0551 7.72049 30.5838 9.64192 30.5838 11.8419C30.5838 14.0419 30.0551 15.9747 28.9921 17.6346C27.9291 19.2775 26.4397 20.5509 24.5182 21.4662C22.6138 22.3814 20.3854 22.8362 17.833 22.8362ZM17.833 16.4011C18.9699 16.4011 19.9477 16.2248 20.772 15.8724C21.5906 15.4972 22.2159 14.9799 22.6479 14.3034C23.097 13.6155 23.3187 12.7913 23.3187 11.8419C23.3187 10.8926 23.097 10.0796 22.6479 9.40885C22.2216 8.721 21.5963 8.198 20.772 7.83987C19.9534 7.46467 18.9699 7.28276 17.833 7.28276C16.696 7.28276 15.7183 7.47036 14.894 7.83987C14.0754 8.19232 13.4387 8.71531 12.9896 9.40885C12.5632 10.0796 12.3472 10.8926 12.3472 11.8419C12.3472 12.7913 12.5632 13.6155 12.9896 14.3034C13.4387 14.9742 14.0697 15.4972 14.894 15.8724C15.7126 16.2248 16.696 16.4011 17.833 16.4011Z" fill="white"/>
</g>
<defs>
<clipPath id="clip0_104_1124">
<rect width="103.991" height="40.6913" fill="white" transform="translate(0 0.654373)"/>
</clipPath>
</defs>
</svg>
