<svg width="39" height="39" viewBox="0 0 39 39" fill="none" xmlns="http://www.w3.org/2000/svg">
<circle cx="19.5" cy="19.5" r="19.5" fill="white"/>
<path d="M28.9943 23.3397C29.0235 23.6887 28.9317 24.1133 28.9317 24.5422C28.9317 25.0162 28.6383 25.275 28.3144 25.5179C27.558 26.085 26.7279 26.5124 25.8769 26.8992C25.2735 27.174 24.6576 27.4183 24.0374 27.651C23.7997 27.7397 23.6551 27.7164 23.5313 27.4634C23.3172 27.0286 23.0739 26.6113 22.8417 26.1867C22.672 25.877 22.6748 25.8654 22.996 25.7156C23.3353 25.5557 23.6745 25.3972 24.0152 25.2372C24.1598 25.1689 24.296 25.118 24.1876 24.8897C24.0889 24.6832 23.9776 24.6672 23.8011 24.7603C22.7749 25.3041 21.6737 25.5978 20.5447 25.7534C18.3465 26.0559 16.2247 25.7462 14.1974 24.7879C14.0139 24.7007 13.8902 24.6585 13.7942 24.9028C13.7303 25.0642 13.765 25.1384 13.9055 25.2038C14.2892 25.3812 14.6688 25.5717 15.0553 25.7432C15.2639 25.8363 15.2987 25.9366 15.1721 26.1475C14.9052 26.5968 14.6591 27.0592 14.4157 27.523C14.3268 27.6917 14.2211 27.7557 14.0445 27.6873C12.5053 27.0897 10.9661 26.4935 9.61603 25.4742C9.23644 25.1878 9.07098 24.8432 9.03761 24.3503C8.78178 20.6032 9.8524 17.2312 11.6002 14.0221C12.0326 13.2297 12.7139 12.9432 13.4285 12.6538C14.2864 12.3063 15.1833 12.1129 16.1009 12.0213C16.2872 12.0024 16.3901 12.0591 16.4402 12.2467C16.4791 12.3907 16.5361 12.5288 16.5862 12.6684C16.6919 12.964 16.8888 13.0833 17.1771 13.0261C18.4104 12.7803 19.6437 12.7847 20.8742 13.0464C21.1523 13.1061 21.2802 13.0348 21.379 12.744C21.7057 11.7916 21.4916 11.9835 22.4065 12.094C23.523 12.2293 24.588 12.5811 25.5891 13.1279C25.8241 13.2558 26.0118 13.4187 26.155 13.6571C27.5329 15.9735 28.4854 18.4584 28.8552 21.1688C28.9498 21.8595 29.0012 22.5574 28.9957 23.3397H28.9943ZM15.6463 18.5922C15.485 18.5893 15.2528 18.6053 15.0303 18.7245C14.0973 19.2262 13.6844 20.3371 14.0556 21.368C14.3129 22.0819 14.9413 22.5879 15.5948 22.6098C16.525 22.6388 17.2425 22.0151 17.4385 21.0059C17.6804 19.7656 16.8476 18.5951 15.6449 18.5937L15.6463 18.5922ZM22.2674 18.5922C21.7613 18.55 21.3219 18.7914 20.9855 19.2218C20.4307 19.9314 20.357 20.7311 20.7171 21.5483C20.9882 22.1634 21.4638 22.5632 22.1353 22.6039C23.3172 22.6752 24.2237 21.5657 24.036 20.3036C23.8845 19.2843 23.1948 18.5995 22.2688 18.5922H22.2674Z" fill="#CE192D"/>
</svg>
