<svg width="39" height="39" viewBox="0 0 39 39" fill="none" xmlns="http://www.w3.org/2000/svg">
<circle cx="19.5" cy="19.5" r="19.5" fill="white"/>
<path d="M15.22 11H22.78C25.66 11 28 13.34 28 16.22V23.78C28 25.1644 27.45 26.4922 26.4711 27.4711C25.4922 28.45 24.1644 29 22.78 29H15.22C12.34 29 10 26.66 10 23.78V16.22C10 14.8356 10.55 13.5078 11.5289 12.5289C12.5078 11.55 13.8356 11 15.22 11ZM15.04 12.8C14.1807 12.8 13.3566 13.1414 12.749 13.749C12.1414 14.3566 11.8 15.1807 11.8 16.04V23.96C11.8 25.751 13.249 27.2 15.04 27.2H22.96C23.8193 27.2 24.6434 26.8586 25.251 26.251C25.8586 25.6434 26.2 24.8193 26.2 23.96V16.04C26.2 14.249 24.751 12.8 22.96 12.8H15.04ZM23.725 14.15C24.0234 14.15 24.3095 14.2685 24.5205 14.4795C24.7315 14.6905 24.85 14.9766 24.85 15.275C24.85 15.5734 24.7315 15.8595 24.5205 16.0705C24.3095 16.2815 24.0234 16.4 23.725 16.4C23.4266 16.4 23.1405 16.2815 22.9295 16.0705C22.7185 15.8595 22.6 15.5734 22.6 15.275C22.6 14.9766 22.7185 14.6905 22.9295 14.4795C23.1405 14.2685 23.4266 14.15 23.725 14.15ZM19 15.5C20.1935 15.5 21.3381 15.9741 22.182 16.818C23.0259 17.6619 23.5 18.8065 23.5 20C23.5 21.1935 23.0259 22.3381 22.182 23.182C21.3381 24.0259 20.1935 24.5 19 24.5C17.8065 24.5 16.6619 24.0259 15.818 23.182C14.9741 22.3381 14.5 21.1935 14.5 20C14.5 18.8065 14.9741 17.6619 15.818 16.818C16.6619 15.9741 17.8065 15.5 19 15.5ZM19 17.3C18.2839 17.3 17.5972 17.5845 17.0908 18.0908C16.5845 18.5972 16.3 19.2839 16.3 20C16.3 20.7161 16.5845 21.4028 17.0908 21.9092C17.5972 22.4155 18.2839 22.7 19 22.7C19.7161 22.7 20.4028 22.4155 20.9092 21.9092C21.4155 21.4028 21.7 20.7161 21.7 20C21.7 19.2839 21.4155 18.5972 20.9092 18.0908C20.4028 17.5845 19.7161 17.3 19 17.3Z" fill="#CE192D"/>
</svg>
