<svg width="39" height="39" viewBox="0 0 39 39" fill="none" xmlns="http://www.w3.org/2000/svg">
<circle cx="19.5" cy="19.5" r="19.5" fill="white"/>
<path d="M20.3978 18.8083C20.7382 18.3544 21.1921 18.014 21.7595 17.7871C23.2347 16.9928 25.1638 16.9927 26.639 18.241C27.0929 18.5814 27.3199 19.1488 27.5468 19.7161C27.7738 20.2835 27.8873 20.8509 27.8873 21.4183C27.8873 23.4609 27.8873 25.6169 27.8873 27.6595C27.8873 27.773 27.8873 27.773 27.8873 27.8865C27.8873 28 27.8873 28 27.7738 28C27.4333 28 27.2064 28 26.866 28C26.1851 28 25.5043 28 24.8234 28C24.7099 28 24.5964 28 24.5964 27.773C24.5964 26.0709 24.5964 24.2552 24.5964 22.5531C24.5964 22.2126 24.5965 21.8722 24.483 21.5318C24.256 20.7375 23.8021 20.397 23.0077 20.2835C22.6673 20.2835 22.3269 20.2835 21.9865 20.2835C21.1921 20.5105 20.6248 21.0779 20.5113 21.9857C20.5113 22.0992 20.5113 22.3261 20.5113 22.4396C20.5113 24.2552 20.5113 25.9574 20.5113 27.773C20.5113 28 20.5113 28 20.2843 28C19.3765 28 18.4687 28 17.5609 28C17.3339 28 17.3339 27.8865 17.3339 27.773C17.3339 24.3687 17.3339 21.0779 17.3339 17.6736C17.3339 17.4466 17.3339 17.4466 17.5609 17.4466C18.4687 17.4466 19.263 17.4466 20.1708 17.4466C20.3978 17.4466 20.3978 17.4466 20.3978 17.6736C20.3978 18.014 20.3978 18.4679 20.3978 18.8083Z" fill="#CE192D"/>
<path d="M15.6304 22.6667C15.6304 24.3688 15.6304 26.0709 15.6304 27.6596C15.6304 27.8866 15.6305 27.8866 15.4035 27.8866C14.4957 27.8866 13.4744 27.8866 12.5666 27.8866C12.3396 27.8866 12.3396 27.8866 12.3396 27.6596C12.3396 24.2553 12.3396 20.9645 12.3396 17.5602C12.3396 17.3333 12.3396 17.3333 12.5666 17.3333C13.4744 17.3333 14.4957 17.3333 15.4035 17.3333C15.6305 17.3333 15.6304 17.3333 15.6304 17.5602C15.6304 19.3758 15.6304 21.078 15.6304 22.6667Z" fill="#CE192D"/>
<path d="M13.9291 15.8582C12.9078 15.8582 12 15.0639 12 13.9291C12 12.9078 12.9078 12 13.9291 12C14.9503 12 15.8582 12.7944 15.8582 13.9291C15.8582 15.0639 15.0638 15.8582 13.9291 15.8582Z" fill="#CE192D"/>
</svg>
