<svg width="30" height="31" viewBox="0 0 30 31" fill="none" xmlns="http://www.w3.org/2000/svg">
<rect y="0.28421" width="30" height="30" rx="15" fill="white"/>
<path d="M11.8 10.4842C13.073 10.4842 14.2939 10.9899 15.1941 11.8901C16.0943 12.7903 16.6 14.0112 16.6 15.2842C16.6 16.5573 16.0943 17.7782 15.1941 18.6783C14.2939 19.5785 13.073 20.0842 11.8 20.0842C10.527 20.0842 9.30606 19.5785 8.40589 18.6783C7.50571 17.7782 7 16.5573 7 15.2842C7 14.0112 7.50571 12.7903 8.40589 11.8901C9.30606 10.9899 10.527 10.4842 11.8 10.4842ZM19 11.2842C20.2 11.2842 21 13.0754 21 15.2842C21 17.493 20.2 19.2842 19 19.2842C17.8 19.2842 17 17.493 17 15.2842C17 13.0754 17.8 11.2842 19 11.2842ZM22.2 11.6842C22.504 11.6842 22.7696 12.3458 22.904 13.481L22.9416 13.8354L22.9568 14.0234L22.9808 14.4186L22.9888 14.6258L22.9984 15.0586L23 15.2842L22.9984 15.5098L22.9888 15.9426L22.9808 16.1506L22.9568 16.545L22.9408 16.733L22.9048 17.0874C22.7696 18.2234 22.5048 18.8842 22.2 18.8842C21.896 18.8842 21.6304 18.2226 21.496 17.0874L21.4584 16.733L21.4432 16.545L21.4192 16.1498L21.4112 15.9426L21.4016 15.5098V15.0586L21.4112 14.6258L21.4192 14.4178L21.4432 14.0234L21.4592 13.8354L21.4952 13.481C21.6304 12.345 21.8952 11.6842 22.2 11.6842Z" fill="#CE192D"/>
</svg>
