<svg width="39" height="39" viewBox="0 0 39 39" fill="none" xmlns="http://www.w3.org/2000/svg">
<circle cx="19.5" cy="19.5" r="19.5" fill="white"/>
<path d="M15.6378 11C16.4786 11.061 17.2814 11.0014 18.0846 11.0244C18.8939 11.0474 19.7061 10.9883 20.5154 11.0117C20.9832 11.0253 21.4505 10.9962 21.9187 11.0216C22.4001 11.0474 22.8853 11.0009 23.368 11.0117C24.3496 11.0338 25.3367 10.9714 26.3065 11.1866C27.6704 11.4896 28.8124 12.849 28.925 14.2506C28.9888 15.0449 29.0066 15.8402 28.9963 16.6332C28.986 17.435 28.9949 18.2369 28.9893 19.0387C28.986 19.5119 28.9832 19.9888 28.9902 20.4633C28.9973 20.9365 29.0085 21.4124 28.9869 21.8879C28.9644 22.377 29.0043 22.8689 28.9968 23.3589C28.9865 24.029 28.9982 24.6996 28.9489 25.3687C28.9161 25.8142 28.856 26.2517 28.7026 26.6756C28.2574 27.9033 26.9915 28.835 25.6942 28.9265C24.9928 28.9762 24.2909 28.9959 23.5909 28.9888C23.1245 28.9841 22.6554 28.9907 22.189 28.986C21.7076 28.9809 21.2239 28.9654 20.7402 28.9907C20.2668 29.0156 19.7905 28.9809 19.3153 28.9794C18.8245 28.9785 18.3337 28.9809 17.843 28.9916C17.4221 29.001 17.0022 28.9766 16.5804 28.993C16.0207 29.0146 15.4586 28.9808 14.8979 28.9621C14.0422 28.9335 13.2197 28.7919 12.5112 28.2559C11.6512 27.6055 11.175 26.7455 11.0788 25.6754C11 24.8117 11.0099 23.947 11.0225 23.0813C11.0347 22.2715 11 21.4612 11 20.6514C11 19.849 11.0211 19.0467 11.0239 18.2449C11.0253 17.7619 10.9953 17.2789 11.0047 16.7964C11.0235 15.8458 10.9751 14.8921 11.1281 13.9476C11.3753 12.418 12.7758 11.1651 14.3204 11.0835C14.7727 11.0596 15.224 11.0263 15.6378 11ZM19.9787 25.2956C20.232 25.3101 20.4802 25.2731 20.7284 25.2431C21.8549 25.1047 22.9143 24.7704 23.8447 24.1041C24.761 23.448 25.302 22.5899 25.1833 21.4138C25.1702 21.2835 25.2419 21.2366 25.3311 21.1789C25.942 20.7845 26.1254 20.0075 25.7505 19.4172C25.3616 18.8052 24.5527 18.6261 23.9404 19.0369C23.7781 19.1457 23.6768 19.125 23.5276 19.0298C22.6169 18.4517 21.6105 18.1647 20.5412 18.0859C20.2536 18.0648 20.2381 18.0526 20.301 17.7614C20.461 17.021 20.6215 16.2805 20.7805 15.5396C20.8467 15.2316 20.8542 15.2264 21.169 15.2939C21.6274 15.3924 22.0853 15.4942 22.5456 15.5828C22.7164 15.6156 22.8139 15.6794 22.8641 15.8623C22.9857 16.3021 23.3554 16.5497 23.7969 16.5225C24.2051 16.4977 24.5532 16.1863 24.6254 15.7825C24.6972 15.3797 24.4823 14.9662 24.1112 14.795C23.7218 14.6154 23.2981 14.7129 23.0194 15.067C22.9223 15.1903 22.8294 15.2227 22.6793 15.1884C22.1003 15.0567 21.519 14.9357 20.9382 14.8119C20.5595 14.7312 20.5075 14.7683 20.4286 15.1415C20.2438 16.0203 20.0509 16.8976 19.8731 17.7778C19.8286 17.9977 19.7371 18.0775 19.5025 18.0906C18.4323 18.1492 17.4221 18.4301 16.51 19.0073C16.3289 19.1217 16.2055 19.14 16.0137 19.013C15.4258 18.6233 14.6244 18.8221 14.2486 19.4233C13.8859 20.0038 14.0562 20.7888 14.6404 21.1545C14.7835 21.2441 14.8196 21.3351 14.8069 21.495C14.7281 22.4792 15.1255 23.2656 15.8677 23.878C17.0585 24.8604 18.4717 25.222 19.9796 25.2946L19.9787 25.2956Z" fill="#CE192D"/>
<path d="M22.0764 19.2498C22.5996 19.2564 23.0195 19.6949 23.0082 20.2229C22.997 20.7448 22.5789 21.1457 22.0492 21.1415C21.504 21.1373 21.0898 20.7279 21.0926 20.1957C21.0954 19.6602 21.5294 19.2428 22.0764 19.2498Z" fill="#CE192D"/>
<path d="M17.9279 19.2498C18.4811 19.2465 18.901 19.6582 18.8982 20.2012C18.8954 20.7264 18.4675 21.1452 17.9354 21.1438C17.4052 21.1428 17.005 20.7442 16.9961 20.2092C16.9872 19.6671 17.3898 19.2531 17.9279 19.2498Z" fill="#CE192D"/>
<path d="M20.0463 20.3859C19.4213 20.3901 18.8696 20.308 18.3441 20.0816C18.1339 19.991 17.9443 19.8682 17.7853 19.7031C17.6793 19.5934 17.6647 19.4673 17.7693 19.3463C17.8665 19.2337 17.9945 19.2169 18.1029 19.3102C18.4919 19.6445 18.9625 19.7397 19.449 19.7828C20.0031 19.8321 20.5563 19.8241 21.1015 19.6952C21.3698 19.6319 21.6237 19.5353 21.8371 19.3519C21.9769 19.2319 22.1229 19.2112 22.2448 19.3655C22.3626 19.5142 22.2889 19.6417 22.167 19.7519C21.7804 20.1027 21.3013 20.2382 20.8054 20.3259C20.5366 20.3737 20.2635 20.3962 20.0463 20.3845V20.3859Z" fill="#CE192D"/>
</svg>
