<svg width="39" height="39" viewBox="0 0 39 39" fill="none" xmlns="http://www.w3.org/2000/svg">
<circle cx="19.5" cy="19.5" r="19.5" fill="white"/>
<path d="M12.3011 26.8029C12.4014 26.7043 12.4014 26.8029 12.3011 26.8029C14.2079 24.7324 16.0143 22.662 17.8208 20.6902C17.9211 20.5916 17.9211 20.5916 17.8208 20.493C15.914 18.0282 14.0071 15.5634 12.1003 13.0986C12.1003 13.0986 12.1004 13 12 13H12.1003C13.7061 13 15.2115 13 16.8172 13C16.9176 13 16.9175 13 16.9175 13.0986C18.0215 14.4789 19.1255 15.9577 20.2294 17.338C20.2294 17.338 20.2294 17.338 20.3297 17.4366L20.4301 17.338C21.7347 15.9577 22.9391 14.4789 24.2437 13.0986C24.3441 13 24.344 13 24.4444 13C25.1469 13 25.8495 13 26.552 13H26.6523L26.552 13.0986C25.3477 14.3803 24.2437 15.662 23.0394 17.0422C22.5376 17.6338 21.9354 18.2253 21.4337 18.8169C21.3333 18.9155 21.4337 18.9155 21.4337 19.0141C23.4408 21.5775 25.448 24.2395 27.4552 26.8029C27.4552 26.8029 27.4552 26.8028 27.5556 26.9014H27.4552C25.9498 26.9014 24.3441 26.9014 22.8387 26.9014C22.7383 26.9014 22.7384 26.9015 22.7384 26.8029C21.5341 25.2254 20.3297 23.6479 19.1254 22.169C19.1254 22.169 19.1254 22.0704 19.0251 22.0704C19.0251 22.0704 19.0251 22.169 18.9247 22.169C17.5197 23.7465 16.1147 25.324 14.7097 26.9014C14.7097 27 14.6093 27 14.509 27C13.8065 27 13.1039 27 12.4014 27C12.4014 26.8028 12.4014 26.8029 12.3011 26.8029ZM24.7455 25.4226C24.6452 25.324 24.7455 25.324 24.7455 25.4226C21.8351 21.6761 19.1254 18.0282 16.3154 14.3803L16.2151 14.2817C15.8136 14.2817 15.4122 14.2817 15.0108 14.2817H14.9104L15.0108 14.3803C15.914 15.4648 16.7168 16.6479 17.62 17.7324C19.6272 20.2958 21.534 22.7606 23.5412 25.324L23.6416 25.4226C23.8423 25.4226 24.2437 25.4226 24.7455 25.4226C24.6452 25.4226 24.6452 25.4226 24.7455 25.4226Z" fill="#CE192D"/>
</svg>
