<svg width="39" height="39" viewBox="0 0 39 39" fill="none" xmlns="http://www.w3.org/2000/svg">
<circle cx="19.5" cy="19.5" r="19.5" fill="white"/>
<path d="M17.2829 26.8298C13.4737 26.7606 12.1729 26.6986 11.3732 26.5361C10.8323 26.4285 10.3623 26.1883 10.0174 25.8411C9.75129 25.5781 9.53943 25.1768 9.37456 24.6201C9.23356 24.1561 9.17861 23.7704 9.10051 22.8274C8.9812 20.7004 8.95228 18.9612 9.10124 17.0174C9.22344 15.9439 9.28273 14.6701 10.0962 13.9266C10.4802 13.5788 10.927 13.355 11.4288 13.2623C12.212 13.1162 15.5512 13 19.0075 13C22.4639 13 25.8023 13.1162 26.5869 13.2623C27.2138 13.3785 27.8017 13.7256 28.1466 14.174C28.8885 15.3244 28.9015 16.7558 28.9767 17.8749C29.0078 18.408 29.0078 21.4367 28.9767 21.9699C28.8595 23.7391 28.7648 24.3649 28.4987 25.0136C28.3339 25.4234 28.1936 25.6394 27.9499 25.8789C27.5681 26.2474 27.0815 26.4926 26.5543 26.5817C23.2585 26.8262 20.4595 26.879 17.2822 26.8291L17.2829 26.8298ZM22.3308 19.7217C20.4971 18.7559 18.7414 17.8599 16.946 16.9325V22.4803C18.8347 21.4681 20.8261 20.5407 22.338 19.7139L22.3301 19.7217H22.3308Z" fill="#CE192D"/>
</svg>
